<mxfile host="app.diagrams.net" modified="2024-04-20T03:57:13.123Z" agent="Mozilla/5.0 (Windows NT 10.0; Win64; x64) AppleWebKit/537.36 (KHTML, like Gecko) Chrome/124.0.0.0 Safari/537.36" etag="g3KOKwhOGZ5njaBBo4OD" version="24.2.7" type="google">
  <diagram name="PÃ¡gina-1" id="0dIbunC9ELj0RHNaor59">
    <mxGraphModel dx="1195" dy="615" grid="1" gridSize="10" guides="1" tooltips="1" connect="1" arrows="1" fold="1" page="1" pageScale="1" pageWidth="827" pageHeight="1169" math="0" shadow="0">
      <root>
        <mxCell id="0" />
        <mxCell id="1" parent="0" />
        <mxCell id="w6L7mJUIzBAza5c3fSH0-17" style="edgeStyle=orthogonalEdgeStyle;rounded=0;orthogonalLoop=1;jettySize=auto;html=1;exitX=0.02;exitY=0.997;exitDx=0;exitDy=0;endArrow=circle;endFill=0;exitPerimeter=0;endSize=5;" parent="1" edge="1" source="w6L7mJUIzBAza5c3fSH0-1">
          <mxGeometry relative="1" as="geometry">
            <mxPoint x="142" y="448.35" as="targetPoint" />
            <mxPoint x="142.64000000000004" y="290" as="sourcePoint" />
          </mxGeometry>
        </mxCell>
        <mxCell id="Ym_yZa-TNB2dP0UwO2Zd-2" style="edgeStyle=orthogonalEdgeStyle;rounded=0;orthogonalLoop=1;jettySize=auto;html=1;exitX=0.113;exitY=1.01;exitDx=0;exitDy=0;endArrow=circle;endFill=0;endSize=4;exitPerimeter=0;" parent="1" edge="1" source="w6L7mJUIzBAza5c3fSH0-1">
          <mxGeometry relative="1" as="geometry">
            <mxPoint x="153.66666666666669" y="430" as="targetPoint" />
            <mxPoint x="153.5" y="290" as="sourcePoint" />
          </mxGeometry>
        </mxCell>
        <mxCell id="Ym_yZa-TNB2dP0UwO2Zd-3" style="edgeStyle=orthogonalEdgeStyle;rounded=0;orthogonalLoop=1;jettySize=auto;html=1;exitX=0.196;exitY=1.004;exitDx=0;exitDy=0;endSize=4;endArrow=circle;endFill=0;exitPerimeter=0;" parent="1" source="w6L7mJUIzBAza5c3fSH0-1" edge="1">
          <mxGeometry relative="1" as="geometry">
            <mxPoint x="163.58823529411762" y="410" as="targetPoint" />
            <mxPoint x="163.50000000000006" y="290" as="sourcePoint" />
          </mxGeometry>
        </mxCell>
        <mxCell id="Ym_yZa-TNB2dP0UwO2Zd-4" style="edgeStyle=orthogonalEdgeStyle;rounded=0;orthogonalLoop=1;jettySize=auto;html=1;exitX=0.276;exitY=1.012;exitDx=0;exitDy=0;endSize=4;endArrow=circle;endFill=0;exitPerimeter=0;" parent="1" edge="1" source="w6L7mJUIzBAza5c3fSH0-1">
          <mxGeometry relative="1" as="geometry">
            <mxPoint x="173" y="390" as="targetPoint" />
            <mxPoint x="173" y="290" as="sourcePoint" />
          </mxGeometry>
        </mxCell>
        <mxCell id="Ym_yZa-TNB2dP0UwO2Zd-7" style="edgeStyle=orthogonalEdgeStyle;rounded=0;orthogonalLoop=1;jettySize=auto;html=1;exitX=0.416;exitY=1.003;exitDx=0;exitDy=0;endSize=3;endArrow=circle;endFill=0;exitPerimeter=0;" parent="1" edge="1" source="w6L7mJUIzBAza5c3fSH0-1">
          <mxGeometry relative="1" as="geometry">
            <mxPoint x="190.1111111111111" y="350" as="targetPoint" />
            <mxPoint x="190" y="290" as="sourcePoint" />
            <Array as="points">
              <mxPoint x="190" y="320" />
              <mxPoint x="190" y="320" />
            </Array>
          </mxGeometry>
        </mxCell>
        <mxCell id="LyV2E375RYbHCo403toP-18" style="edgeStyle=orthogonalEdgeStyle;rounded=0;orthogonalLoop=1;jettySize=auto;html=1;exitX=0.492;exitY=1.003;exitDx=0;exitDy=0;endSize=3;fontSize=9;endArrow=circle;endFill=0;exitPerimeter=0;" edge="1" parent="1" source="w6L7mJUIzBAza5c3fSH0-1">
          <mxGeometry relative="1" as="geometry">
            <mxPoint x="198.96296296296293" y="330" as="targetPoint" />
            <mxPoint x="199" y="290" as="sourcePoint" />
            <Array as="points" />
          </mxGeometry>
        </mxCell>
        <mxCell id="w6L7mJUIzBAza5c3fSH0-1" value="&lt;font style=&quot;vertical-align: inherit;&quot;&gt;&lt;font style=&quot;vertical-align: inherit;&quot;&gt;Usuarios&lt;/font&gt;&lt;/font&gt;" style="html=1;whiteSpace=wrap;" parent="1" vertex="1">
          <mxGeometry x="140" y="234" width="120" height="50" as="geometry" />
        </mxCell>
        <mxCell id="w6L7mJUIzBAza5c3fSH0-12" value="&lt;span style=&quot;color: rgba(0, 0, 0, 0); font-family: monospace; font-size: 0px; text-align: start;&quot;&gt;%3CmxGraphModel%3E%3Croot%3E%3CmxCell%20id%3D%220%22%2F%3E%3CmxCell%20id%3D%221%22%20parent%3D%220%22%2F%3E%3CmxCell%20id%3D%222%22%20value%3D%22ID_Usuario%22%20style%3D%22edgeLabel%3Bhtml%3D1%3Balign%3Dcenter%3BverticalAlign%3Dmiddle%3Bresizable%3D0%3Bpoints%3D%5B%5D%3BlabelBorderColor%3Dnone%3BtextShadow%3D1%3B%22%20vertex%3D%221%22%20connectable%3D%220%22%20parent%3D%221%22%3E%3CmxGeometry%20x%3D%22259.7174846425339%22%20y%3D%22321.4380928209863%22%20as%3D%22geometry%22%2F%3E%3C%2FmxCell%3E%3C%2Froot%3E%3C%2FmxGraphModel%3E&lt;/span&gt;" style="text;html=1;align=center;verticalAlign=middle;resizable=0;points=[];autosize=1;strokeColor=none;fillColor=none;" parent="1" vertex="1">
          <mxGeometry x="215" y="338" width="20" height="30" as="geometry" />
        </mxCell>
        <mxCell id="w6L7mJUIzBAza5c3fSH0-13" value="Nome" style="edgeLabel;html=1;align=center;verticalAlign=middle;resizable=0;points=[];labelBorderColor=none;textShadow=1;fontSize=8;" parent="1" vertex="1" connectable="0">
          <mxGeometry x="180.9974846425339" y="404.9980928209863" as="geometry">
            <mxPoint x="2" y="-2" as="offset" />
          </mxGeometry>
        </mxCell>
        <mxCell id="w6L7mJUIzBAza5c3fSH0-16" value="CPF" style="edgeLabel;html=1;align=center;verticalAlign=middle;resizable=0;points=[];labelBorderColor=none;textShadow=1;fontSize=8;" parent="1" vertex="1" connectable="0">
          <mxGeometry x="203.9974846425339" y="404.9980928209863" as="geometry">
            <mxPoint x="-32" y="18" as="offset" />
          </mxGeometry>
        </mxCell>
        <mxCell id="w6L7mJUIzBAza5c3fSH0-20" value="Email" style="edgeLabel;html=1;align=center;verticalAlign=middle;resizable=0;points=[];labelBorderColor=none;textShadow=1;fontSize=9;" parent="1" vertex="1" connectable="0">
          <mxGeometry x="162.99748464253392" y="440.9980928209863" as="geometry" />
        </mxCell>
        <mxCell id="w6L7mJUIzBAza5c3fSH0-33" value="Senha" style="text;html=1;align=center;verticalAlign=middle;resizable=0;points=[];autosize=1;strokeColor=none;fillColor=none;textShadow=1;labelBackgroundColor=default;fontSize=8;" parent="1" vertex="1">
          <mxGeometry x="183" y="334" width="50" height="20" as="geometry" />
        </mxCell>
        <mxCell id="w6L7mJUIzBAza5c3fSH0-56" style="edgeStyle=orthogonalEdgeStyle;rounded=0;orthogonalLoop=1;jettySize=auto;html=1;exitX=0.75;exitY=1;exitDx=0;exitDy=0;endArrow=circle;endFill=0;" parent="1" edge="1">
          <mxGeometry relative="1" as="geometry">
            <mxPoint x="224.45555555555555" y="570" as="targetPoint" />
            <mxPoint x="224.4" y="510" as="sourcePoint" />
          </mxGeometry>
        </mxCell>
        <mxCell id="w6L7mJUIzBAza5c3fSH0-62" style="edgeStyle=orthogonalEdgeStyle;rounded=0;orthogonalLoop=1;jettySize=auto;html=1;exitX=0.5;exitY=1;exitDx=0;exitDy=0;endArrow=circle;endFill=0;" parent="1" source="w6L7mJUIzBAza5c3fSH0-38" edge="1">
          <mxGeometry relative="1" as="geometry">
            <mxPoint x="195.09523809523807" y="590" as="targetPoint" />
          </mxGeometry>
        </mxCell>
        <mxCell id="w6L7mJUIzBAza5c3fSH0-64" style="edgeStyle=orthogonalEdgeStyle;rounded=0;orthogonalLoop=1;jettySize=auto;html=1;exitX=0.25;exitY=1;exitDx=0;exitDy=0;endArrow=circle;endFill=0;" parent="1" source="w6L7mJUIzBAza5c3fSH0-38" edge="1">
          <mxGeometry relative="1" as="geometry">
            <mxPoint x="167.47619047619048" y="610" as="targetPoint" />
          </mxGeometry>
        </mxCell>
        <mxCell id="w6L7mJUIzBAza5c3fSH0-69" style="edgeStyle=orthogonalEdgeStyle;rounded=0;orthogonalLoop=1;jettySize=auto;html=1;exitX=0;exitY=1;exitDx=0;exitDy=0;endArrow=circle;endFill=0;" parent="1" source="w6L7mJUIzBAza5c3fSH0-38" edge="1">
          <mxGeometry relative="1" as="geometry">
            <mxPoint x="139.8571428571429" y="630" as="targetPoint" />
          </mxGeometry>
        </mxCell>
        <mxCell id="w6L7mJUIzBAza5c3fSH0-38" value="Eventos" style="html=1;whiteSpace=wrap;" parent="1" vertex="1">
          <mxGeometry x="140" y="475" width="110" height="50" as="geometry" />
        </mxCell>
        <mxCell id="w6L7mJUIzBAza5c3fSH0-43" value="(1,n)" style="text;html=1;align=center;verticalAlign=middle;resizable=0;points=[];autosize=1;strokeColor=none;fillColor=none;fontSize=10;" parent="1" vertex="1">
          <mxGeometry x="90" y="260" width="40" height="30" as="geometry" />
        </mxCell>
        <mxCell id="w6L7mJUIzBAza5c3fSH0-48" style="edgeStyle=orthogonalEdgeStyle;rounded=0;orthogonalLoop=1;jettySize=auto;html=1;exitX=0.5;exitY=1;exitDx=0;exitDy=0;entryX=0;entryY=0.5;entryDx=0;entryDy=0;endArrow=none;endFill=0;" parent="1" source="w6L7mJUIzBAza5c3fSH0-44" target="w6L7mJUIzBAza5c3fSH0-38" edge="1">
          <mxGeometry relative="1" as="geometry">
            <Array as="points">
              <mxPoint x="60" y="500" />
              <mxPoint x="140" y="500" />
            </Array>
          </mxGeometry>
        </mxCell>
        <mxCell id="w6L7mJUIzBAza5c3fSH0-44" value="&lt;font style=&quot;font-size: 9px;&quot;&gt;Participam&lt;/font&gt;" style="rhombus;whiteSpace=wrap;html=1;" parent="1" vertex="1">
          <mxGeometry x="30" y="333" width="60" height="60" as="geometry" />
        </mxCell>
        <mxCell id="w6L7mJUIzBAza5c3fSH0-47" style="edgeStyle=orthogonalEdgeStyle;rounded=0;orthogonalLoop=1;jettySize=auto;html=1;exitX=0.5;exitY=0;exitDx=0;exitDy=0;entryX=0.003;entryY=0.428;entryDx=0;entryDy=0;entryPerimeter=0;endArrow=none;endFill=0;" parent="1" source="w6L7mJUIzBAza5c3fSH0-44" target="w6L7mJUIzBAza5c3fSH0-1" edge="1">
          <mxGeometry relative="1" as="geometry" />
        </mxCell>
        <mxCell id="w6L7mJUIzBAza5c3fSH0-51" value="&lt;font color=&quot;#3399ff&quot; style=&quot;font-size: 10px;&quot;&gt;ID_Evento&lt;/font&gt;" style="text;html=1;align=center;verticalAlign=middle;resizable=0;points=[];autosize=1;textShadow=1;labelBorderColor=none;labelBackgroundColor=default;fontSize=10;horizontal=1;fontStyle=0;" parent="1" vertex="1">
          <mxGeometry x="243" y="528" width="70" height="30" as="geometry" />
        </mxCell>
        <mxCell id="w6L7mJUIzBAza5c3fSH0-53" style="edgeStyle=orthogonalEdgeStyle;rounded=0;orthogonalLoop=1;jettySize=auto;html=1;exitX=0.96;exitY=1.009;exitDx=0;exitDy=0;entryX=0.535;entryY=0.067;entryDx=0;entryDy=0;entryPerimeter=0;endArrow=circle;endFill=0;exitPerimeter=0;fillColor=#dae8fc;strokeColor=#6c8ebf;" parent="1" target="w6L7mJUIzBAza5c3fSH0-57" edge="1">
          <mxGeometry relative="1" as="geometry">
            <mxPoint x="245.3" y="525" as="sourcePoint" />
            <mxPoint x="244.70000000000005" y="563.0600000000002" as="targetPoint" />
          </mxGeometry>
        </mxCell>
        <mxCell id="w6L7mJUIzBAza5c3fSH0-57" value="&lt;font style=&quot;font-size: 10px;&quot;&gt;Data&lt;/font&gt;" style="text;html=1;align=center;verticalAlign=middle;resizable=0;points=[];autosize=1;strokeColor=none;fillColor=none;textShadow=1;labelBackgroundColor=default;" parent="1" vertex="1">
          <mxGeometry x="225" y="550" width="40" height="30" as="geometry" />
        </mxCell>
        <mxCell id="w6L7mJUIzBAza5c3fSH0-63" value="&lt;font style=&quot;font-size: 10px;&quot;&gt;HorÃ¡rio&lt;/font&gt;" style="text;html=1;align=center;verticalAlign=middle;resizable=0;points=[];autosize=1;strokeColor=none;fillColor=none;textShadow=1;labelBackgroundColor=default;" parent="1" vertex="1">
          <mxGeometry x="190" y="568" width="60" height="30" as="geometry" />
        </mxCell>
        <mxCell id="w6L7mJUIzBAza5c3fSH0-65" value="&lt;font style=&quot;font-size: 10px;&quot;&gt;Local&lt;/font&gt;" style="text;html=1;align=center;verticalAlign=middle;resizable=0;points=[];autosize=1;strokeColor=none;fillColor=none;fontSize=9;labelBackgroundColor=default;textShadow=1;" parent="1" vertex="1">
          <mxGeometry x="165" y="588" width="50" height="30" as="geometry" />
        </mxCell>
        <mxCell id="w6L7mJUIzBAza5c3fSH0-70" value="Nome" style="text;html=1;align=center;verticalAlign=middle;resizable=0;points=[];autosize=1;strokeColor=none;fillColor=none;fontSize=10;labelBackgroundColor=default;textShadow=1;" parent="1" vertex="1">
          <mxGeometry x="140" y="608" width="50" height="30" as="geometry" />
        </mxCell>
        <mxCell id="w6L7mJUIzBAza5c3fSH0-73" value="n" style="text;html=1;align=center;verticalAlign=middle;resizable=0;points=[];autosize=1;strokeColor=none;fillColor=none;" parent="1" vertex="1">
          <mxGeometry x="65" y="327" width="30" height="30" as="geometry" />
        </mxCell>
        <mxCell id="w6L7mJUIzBAza5c3fSH0-74" value="n" style="text;html=1;align=center;verticalAlign=middle;resizable=0;points=[];autosize=1;strokeColor=none;fillColor=none;" parent="1" vertex="1">
          <mxGeometry x="65" y="368" width="30" height="30" as="geometry" />
        </mxCell>
        <mxCell id="w6L7mJUIzBAza5c3fSH0-75" value="(1,n)" style="text;html=1;align=center;verticalAlign=middle;resizable=0;points=[];autosize=1;strokeColor=none;fillColor=none;" parent="1" vertex="1">
          <mxGeometry x="80" y="458" width="50" height="30" as="geometry" />
        </mxCell>
        <mxCell id="w6L7mJUIzBAza5c3fSH0-80" value="EndereÃ§o" style="text;html=1;align=center;verticalAlign=middle;resizable=0;points=[];autosize=1;strokeColor=none;fillColor=none;labelBackgroundColor=default;textShadow=1;fontSize=8;" parent="1" vertex="1">
          <mxGeometry x="177" y="352" width="60" height="20" as="geometry" />
        </mxCell>
        <mxCell id="w6L7mJUIzBAza5c3fSH0-93" value="DataNascimento" style="text;html=1;align=center;verticalAlign=middle;resizable=0;points=[];autosize=1;strokeColor=none;fillColor=none;textShadow=1;labelBackgroundColor=default;fontSize=8;" parent="1" vertex="1">
          <mxGeometry x="172" y="373" width="80" height="20" as="geometry" />
        </mxCell>
        <mxCell id="5fnAD5aKDhT1vsIg49br-5" value="&lt;font style=&quot;font-size: 9px;&quot;&gt;Possuem&lt;/font&gt;" style="rhombus;whiteSpace=wrap;html=1;" parent="1" vertex="1">
          <mxGeometry x="135" y="140" width="50" height="50" as="geometry" />
        </mxCell>
        <mxCell id="5fnAD5aKDhT1vsIg49br-8" style="edgeStyle=orthogonalEdgeStyle;rounded=0;orthogonalLoop=1;jettySize=auto;html=1;exitX=0.5;exitY=1;exitDx=0;exitDy=0;entryX=0.181;entryY=0;entryDx=0;entryDy=0;entryPerimeter=0;endArrow=none;endFill=0;" parent="1" source="5fnAD5aKDhT1vsIg49br-5" target="w6L7mJUIzBAza5c3fSH0-1" edge="1">
          <mxGeometry relative="1" as="geometry">
            <Array as="points">
              <mxPoint x="160" y="234" />
            </Array>
          </mxGeometry>
        </mxCell>
        <mxCell id="5fnAD5aKDhT1vsIg49br-38" style="rounded=0;orthogonalLoop=1;jettySize=auto;html=1;exitX=1;exitY=0.5;exitDx=0;exitDy=0;endArrow=circle;endFill=0;endSize=4;entryX=0.505;entryY=-0.105;entryDx=0;entryDy=0;entryPerimeter=0;" parent="1" edge="1">
          <mxGeometry relative="1" as="geometry">
            <mxPoint x="338.35" y="53.900000000000006" as="targetPoint" />
            <Array as="points">
              <mxPoint x="250" y="54" />
              <mxPoint x="260" y="54" />
              <mxPoint x="270" y="54" />
              <mxPoint x="290" y="54" />
            </Array>
            <mxPoint x="250.00000000000006" y="44.00000000000003" as="sourcePoint" />
          </mxGeometry>
        </mxCell>
        <mxCell id="5fnAD5aKDhT1vsIg49br-66" value="" style="rounded=0;orthogonalLoop=1;jettySize=auto;exitX=1;exitY=0;exitDx=0;exitDy=0;html=1;endArrow=circle;endFill=0;endSize=4;entryX=0.056;entryY=0.05;entryDx=0;entryDy=0;entryPerimeter=0;" parent="1" source="5fnAD5aKDhT1vsIg49br-9" edge="1">
          <mxGeometry relative="1" as="geometry">
            <mxPoint x="362.24" y="31" as="targetPoint" />
            <Array as="points">
              <mxPoint x="250" y="31" />
              <mxPoint x="290" y="31" />
              <mxPoint x="340" y="31" />
            </Array>
            <mxPoint x="250.00000000000006" y="19" as="sourcePoint" />
          </mxGeometry>
        </mxCell>
        <mxCell id="LyV2E375RYbHCo403toP-1" style="rounded=0;orthogonalLoop=1;jettySize=auto;html=1;exitX=1;exitY=0;exitDx=0;exitDy=0;endArrow=circle;endFill=0;endSize=4;" edge="1" parent="1" source="5fnAD5aKDhT1vsIg49br-9">
          <mxGeometry relative="1" as="geometry">
            <mxPoint x="370" y="20" as="targetPoint" />
          </mxGeometry>
        </mxCell>
        <mxCell id="LyV2E375RYbHCo403toP-10" style="rounded=0;orthogonalLoop=1;jettySize=auto;html=1;exitX=1;exitY=0.75;exitDx=0;exitDy=0;endArrow=circle;endFill=0;endSize=4;" edge="1" parent="1" source="5fnAD5aKDhT1vsIg49br-9">
          <mxGeometry relative="1" as="geometry">
            <mxPoint x="310.00000000000006" y="80.03370786516854" as="targetPoint" />
          </mxGeometry>
        </mxCell>
        <mxCell id="LyV2E375RYbHCo403toP-11" style="rounded=0;orthogonalLoop=1;jettySize=auto;html=1;exitX=1;exitY=1;exitDx=0;exitDy=0;endArrow=circle;endFill=0;fontSize=8;endSize=4;" edge="1" parent="1">
          <mxGeometry relative="1" as="geometry">
            <mxPoint x="300" y="90.03225806451613" as="targetPoint" />
            <mxPoint x="250.00000000000006" y="90.00000000000003" as="sourcePoint" />
          </mxGeometry>
        </mxCell>
        <mxCell id="LyV2E375RYbHCo403toP-13" style="rounded=0;orthogonalLoop=1;jettySize=auto;html=1;exitX=1;exitY=1;exitDx=0;exitDy=0;textShadow=0;fillColor=#dae8fc;strokeColor=#6c8ebf;endArrow=circle;endFill=0;endSize=4;" edge="1" parent="1" source="5fnAD5aKDhT1vsIg49br-9">
          <mxGeometry relative="1" as="geometry">
            <mxPoint x="290" y="100.03225806451613" as="targetPoint" />
          </mxGeometry>
        </mxCell>
        <mxCell id="5fnAD5aKDhT1vsIg49br-9" value="Convites" style="html=1;whiteSpace=wrap;" parent="1" vertex="1">
          <mxGeometry x="140" y="20" width="110" height="80" as="geometry" />
        </mxCell>
        <mxCell id="5fnAD5aKDhT1vsIg49br-10" style="edgeStyle=orthogonalEdgeStyle;rounded=0;orthogonalLoop=1;jettySize=auto;html=1;exitX=0.5;exitY=0;exitDx=0;exitDy=0;entryX=0.182;entryY=1;entryDx=0;entryDy=0;entryPerimeter=0;endArrow=none;endFill=0;" parent="1" source="5fnAD5aKDhT1vsIg49br-5" target="5fnAD5aKDhT1vsIg49br-9" edge="1">
          <mxGeometry relative="1" as="geometry" />
        </mxCell>
        <mxCell id="5fnAD5aKDhT1vsIg49br-11" value="(1,n)" style="text;html=1;align=center;verticalAlign=middle;resizable=0;points=[];autosize=1;strokeColor=none;fillColor=none;fontSize=10;" parent="1" vertex="1">
          <mxGeometry x="125" y="92" width="40" height="30" as="geometry" />
        </mxCell>
        <mxCell id="5fnAD5aKDhT1vsIg49br-12" value="&lt;span style=&quot;color: rgb(0, 0, 0); font-family: Helvetica; font-size: 10px; font-style: normal; font-variant-ligatures: normal; font-variant-caps: normal; font-weight: 400; letter-spacing: normal; orphans: 2; text-align: center; text-indent: 0px; text-transform: none; widows: 2; word-spacing: 0px; -webkit-text-stroke-width: 0px; white-space: nowrap; background-color: rgb(251, 251, 251); text-decoration-thickness: initial; text-decoration-style: initial; text-decoration-color: initial; display: inline !important; float: none;&quot;&gt;(1,n)&lt;/span&gt;" style="text;whiteSpace=wrap;html=1;" parent="1" vertex="1">
          <mxGeometry x="131" y="210" width="50" height="40" as="geometry" />
        </mxCell>
        <mxCell id="5fnAD5aKDhT1vsIg49br-60" value="&lt;font style=&quot;font-size: 6px;&quot; color=&quot;#3399ff&quot;&gt;ID_Convites&lt;/font&gt;" style="text;html=1;align=center;verticalAlign=middle;resizable=0;points=[];autosize=1;strokeColor=none;fillColor=none;fontSize=6;labelBackgroundColor=default;textShadow=1;labelPosition=center;verticalLabelPosition=middle;" parent="1" vertex="1">
          <mxGeometry x="276" y="90" width="60" height="20" as="geometry" />
        </mxCell>
        <mxCell id="5fnAD5aKDhT1vsIg49br-61" value="&lt;span style=&quot;font-size: 6px;&quot;&gt;Data&lt;/span&gt;" style="text;html=1;align=center;verticalAlign=middle;resizable=0;points=[];autosize=1;strokeColor=none;fillColor=none;textShadow=1;labelBackgroundColor=default;spacing=0;spacingTop=1;fontSize=6;" parent="1" vertex="1">
          <mxGeometry x="330" y="43" width="30" height="20" as="geometry" />
        </mxCell>
        <mxCell id="5fnAD5aKDhT1vsIg49br-62" value="&lt;font style=&quot;font-size: 6px;&quot;&gt;Status Checkin&lt;/font&gt;" style="text;html=1;align=center;verticalAlign=middle;resizable=0;points=[];autosize=1;strokeColor=none;fillColor=none;fontSize=6;labelBackgroundColor=default;textShadow=1;" parent="1" vertex="1">
          <mxGeometry x="308" y="56" width="60" height="20" as="geometry" />
        </mxCell>
        <mxCell id="5fnAD5aKDhT1vsIg49br-64" value="&lt;font style=&quot;font-size: 6px;&quot;&gt;Tema&lt;/font&gt;" style="text;html=1;align=center;verticalAlign=middle;resizable=0;points=[];autosize=1;strokeColor=none;fillColor=none;fontSize=6;textShadow=1;labelBackgroundColor=default;" parent="1" vertex="1">
          <mxGeometry x="341" y="33" width="40" height="20" as="geometry" />
        </mxCell>
        <mxCell id="5fnAD5aKDhT1vsIg49br-69" value="&lt;font style=&quot;font-size: 6px;&quot;&gt;Formato&lt;/font&gt;" style="text;html=1;align=center;verticalAlign=middle;resizable=0;points=[];autosize=1;strokeColor=none;fillColor=none;fontSize=6;textShadow=1;labelBackgroundColor=default;" parent="1" vertex="1">
          <mxGeometry x="358" y="10" width="50" height="20" as="geometry" />
        </mxCell>
        <mxCell id="Ym_yZa-TNB2dP0UwO2Zd-10" value="ID_Usuario" style="text;html=1;align=center;verticalAlign=middle;resizable=0;points=[];autosize=1;textShadow=1;labelBackgroundColor=default;fontColor=#3399FF;fontSize=5;" parent="1" vertex="1">
          <mxGeometry x="226" y="284" width="50" height="20" as="geometry" />
        </mxCell>
        <mxCell id="LyV2E375RYbHCo403toP-3" value="Local" style="text;html=1;align=center;verticalAlign=middle;resizable=0;points=[];autosize=1;strokeColor=none;fillColor=none;labelBackgroundColor=default;textShadow=1;fontSize=6;" vertex="1" parent="1">
          <mxGeometry x="351" y="23" width="40" height="20" as="geometry" />
        </mxCell>
        <mxCell id="LyV2E375RYbHCo403toP-5" style="rounded=0;orthogonalLoop=1;jettySize=auto;html=1;exitX=1;exitY=0.25;exitDx=0;exitDy=0;endArrow=circle;endFill=0;fontSize=10;endSize=4;" edge="1" parent="1">
          <mxGeometry relative="1" as="geometry">
            <mxPoint x="250.00000000000006" y="42.5" as="sourcePoint" />
            <mxPoint x="352" y="43" as="targetPoint" />
          </mxGeometry>
        </mxCell>
        <mxCell id="LyV2E375RYbHCo403toP-7" value="&lt;font style=&quot;font-size: 6px;&quot;&gt;Status Checkout&lt;/font&gt;" style="text;html=1;align=center;verticalAlign=middle;resizable=0;points=[];autosize=1;strokeColor=none;fillColor=none;labelBackgroundColor=default;textShadow=1;fontSize=6;" vertex="1" parent="1">
          <mxGeometry x="299" y="70" width="70" height="20" as="geometry" />
        </mxCell>
        <mxCell id="LyV2E375RYbHCo403toP-8" style="rounded=0;orthogonalLoop=1;jettySize=auto;html=1;exitX=1;exitY=0.5;exitDx=0;exitDy=0;entryX=0.163;entryY=0.024;entryDx=0;entryDy=0;entryPerimeter=0;endArrow=circle;endFill=0;endSize=4;" edge="1" parent="1">
          <mxGeometry relative="1" as="geometry">
            <mxPoint x="250" y="65" as="sourcePoint" />
            <mxPoint x="315.40999999999997" y="65.47999999999999" as="targetPoint" />
          </mxGeometry>
        </mxCell>
        <mxCell id="LyV2E375RYbHCo403toP-12" value="&lt;font style=&quot;font-size: 6px;&quot;&gt;QrCode&lt;/font&gt;" style="text;html=1;align=center;verticalAlign=middle;resizable=0;points=[];autosize=1;strokeColor=none;fillColor=none;textShadow=1;labelBackgroundColor=default;fontSize=6;" vertex="1" parent="1">
          <mxGeometry x="291" y="80" width="40" height="20" as="geometry" />
        </mxCell>
        <mxCell id="LyV2E375RYbHCo403toP-15" value="&lt;font style=&quot;font-size: 7px;&quot;&gt;Certificado&lt;/font&gt;" style="text;html=1;align=center;verticalAlign=middle;resizable=0;points=[];autosize=1;strokeColor=none;fillColor=none;textShadow=1;labelBackgroundColor=default;fontSize=7;" vertex="1" parent="1">
          <mxGeometry x="191" y="316" width="60" height="20" as="geometry" />
        </mxCell>
        <mxCell id="LyV2E375RYbHCo403toP-16" style="rounded=0;orthogonalLoop=1;jettySize=auto;html=1;entryX=0.012;entryY=0.633;entryDx=0;entryDy=0;entryPerimeter=0;endArrow=circle;endFill=0;endSize=3;exitX=0.352;exitY=0.996;exitDx=0;exitDy=0;exitPerimeter=0;" edge="1" parent="1" source="w6L7mJUIzBAza5c3fSH0-1">
          <mxGeometry relative="1" as="geometry">
            <mxPoint x="182" y="290" as="sourcePoint" />
            <mxPoint x="181.72000000000008" y="366.66" as="targetPoint" />
          </mxGeometry>
        </mxCell>
        <mxCell id="LyV2E375RYbHCo403toP-19" style="edgeStyle=orthogonalEdgeStyle;rounded=0;orthogonalLoop=1;jettySize=auto;html=1;entryX=0.646;entryY=0.039;entryDx=0;entryDy=0;entryPerimeter=0;endSize=3;endArrow=circle;endFill=0;exitX=0.555;exitY=0.998;exitDx=0;exitDy=0;exitPerimeter=0;" edge="1" parent="1" source="w6L7mJUIzBAza5c3fSH0-1">
          <mxGeometry relative="1" as="geometry">
            <mxPoint x="208" y="290" as="sourcePoint" />
            <mxPoint x="207.76" y="316.78" as="targetPoint" />
          </mxGeometry>
        </mxCell>
        <mxCell id="LyV2E375RYbHCo403toP-20" value="&lt;font style=&quot;font-size: 7px;&quot;&gt;MatÃ©ria&lt;/font&gt;" style="text;html=1;align=center;verticalAlign=middle;resizable=0;points=[];autosize=1;strokeColor=none;fillColor=none;labelBackgroundColor=default;textShadow=1;fontSize=7;" vertex="1" parent="1">
          <mxGeometry x="199" y="302" width="50" height="20" as="geometry" />
        </mxCell>
        <mxCell id="LyV2E375RYbHCo403toP-21" style="edgeStyle=orthogonalEdgeStyle;rounded=0;orthogonalLoop=1;jettySize=auto;html=1;entryX=0.601;entryY=0.45;entryDx=0;entryDy=0;entryPerimeter=0;endArrow=circle;endFill=0;endSize=3;exitX=0.657;exitY=1.001;exitDx=0;exitDy=0;exitPerimeter=0;" edge="1" parent="1" source="w6L7mJUIzBAza5c3fSH0-1">
          <mxGeometry relative="1" as="geometry">
            <mxPoint x="219" y="290" as="sourcePoint" />
            <mxPoint x="219.05" y="307" as="targetPoint" />
          </mxGeometry>
        </mxCell>
        <mxCell id="LyV2E375RYbHCo403toP-22" value="&lt;font style=&quot;font-size: 5px;&quot;&gt;Curso&lt;/font&gt;" style="text;html=1;align=center;verticalAlign=middle;resizable=0;points=[];autosize=1;strokeColor=none;fillColor=none;fontSize=5;labelBackgroundColor=default;textShadow=1;" vertex="1" parent="1">
          <mxGeometry x="211" y="292" width="40" height="20" as="geometry" />
        </mxCell>
        <mxCell id="LyV2E375RYbHCo403toP-23" style="edgeStyle=orthogonalEdgeStyle;rounded=0;orthogonalLoop=1;jettySize=auto;html=1;exitX=0.157;exitY=0.016;exitDx=0;exitDy=0;entryX=0.427;entryY=0.4;entryDx=0;entryDy=0;entryPerimeter=0;fillColor=#dae8fc;strokeColor=#6c8ebf;endArrow=circle;endFill=0;endSize=2;exitPerimeter=0;" edge="1" parent="1" source="Ym_yZa-TNB2dP0UwO2Zd-10">
          <mxGeometry relative="1" as="geometry">
            <mxPoint x="234" y="290" as="sourcePoint" />
            <mxPoint x="234.07999999999998" y="300" as="targetPoint" />
          </mxGeometry>
        </mxCell>
      </root>
    </mxGraphModel>
  </diagram>
</mxfile>
